<?xml version="1.0" encoding="UTF-8"?>
<svg version="1.1" xmlns="http://www.w3.org/2000/svg" width="128" height="128">
<path d="M0 0 C12.72376915 9.47389003 20.4640403 23.02139981 23.05078125 38.6171875 C24.84877089 55.24243421 21.80209006 71.64031719 11.1953125 84.9375 C8.98555913 87.4666905 6.70832361 89.87732865 4.3359375 92.25390625 C3.77132812 92.83011719 3.20671875 93.40632813 2.625 94 C-9.39179839 105.28406678 -25.26827016 107.99026633 -41.10546875 107.53515625 C-57.66956696 106.71667085 -70.5360642 99.04313343 -81.6640625 87.25390625 C-92.44597106 74.55653042 -96.98148585 58.75210014 -95.6640625 42.25390625 C-93.06511845 24.99084722 -86.04203384 11.6374121 -72.6640625 0.25390625 C-66.15627939 -4.26845151 -59.37397191 -7.82231597 -51.6640625 -9.74609375 C-50.61412109 -10.02066406 -50.61412109 -10.02066406 -49.54296875 -10.30078125 C-31.56217262 -13.08207129 -15.22492338 -9.97879875 0 0 Z M-43.6640625 17.25390625 C-45.09190105 22.18249897 -46.51730421 27.11166187 -47.93652344 32.04272461 C-48.42012006 33.72022068 -48.90513798 35.39730769 -49.39160156 37.07397461 C-50.09032705 39.48315157 -50.78393874 41.89375029 -51.4765625 44.3046875 C-51.69530029 45.05478592 -51.91403809 45.80488434 -52.1394043 46.57771301 C-52.99343077 49.56583908 -53.6640625 52.12920672 -53.6640625 55.25390625 C-50.3640625 55.25390625 -47.0640625 55.25390625 -43.6640625 55.25390625 C-43.91164307 56.11145508 -44.15922363 56.96900391 -44.41430664 57.85253906 C-45.32976298 61.04097911 -46.23630984 64.23167754 -47.13696289 67.42431641 C-47.52828445 68.80455536 -47.92311221 70.18380533 -48.3215332 71.56201172 C-48.89422509 73.54534167 -49.454137 75.53190799 -50.01171875 77.51953125 C-50.35211182 78.71352539 -50.69250488 79.90751953 -51.04321289 81.13769531 C-51.62489267 84.05730235 -51.70852997 85.51994607 -50.6640625 88.25390625 C-40.45218834 75.75288382 -30.26797852 63.23217114 -20.6640625 50.25390625 C-25.2840625 50.25390625 -29.9040625 50.25390625 -34.6640625 50.25390625 C-32.3317682 43.37934646 -29.08159661 37.26495586 -25.5390625 30.94140625 C-24.45096451 28.98818116 -23.36492863 27.03380547 -22.28125 25.078125 C-21.80284668 24.22307373 -21.32444336 23.36802246 -20.83154297 22.48706055 C-19.55269285 20.18527138 -19.55269285 20.18527138 -18.6640625 17.25390625 C-26.9140625 17.25390625 -35.1640625 17.25390625 -43.6640625 17.25390625 Z " fill="#97B3FF" transform="translate(99.6640625,15.74609375)"/>
</svg>
