<svg xmlns="http://www.w3.org/2000/svg" width="128" height="128" fill="none"><path fill="#fff" stroke="#0052FF" stroke-width="7" d="M18.517 54.331c5.339-25.119 30.03-41.155 55.151-35.815 24.923 5.298 40.904 29.647 35.937 54.563l-.121.589c-5.339 25.12-30.03 41.154-55.151 35.815-25.12-5.339-41.155-30.031-35.816-55.152Z"/><path fill="#0052FF" d="M82.607 71.733a14.616 14.616 0 0 0-3.308-4.543c-1.015-.887-2.097-1.764-3.44-2.537 1.068-.217 2.039-.627 3.077-1.046 1.558-.63 2.79-1.623 3.86-2.801 1.002-1.168 1.747-2.712 2.127-4.41.41-1.977.282-3.878-.568-5.542a10.49 10.49 0 0 0-3.242-4.072c-1.39-1.11-2.96-2.055-4.63-2.713-.948-.416-2.013-.68-3.02-1.018l1.865-8.776-4.413-.938-.61-.13-1.862 8.762-5.162-1.131 1.856-8.73-5.084-1.08-1.858 8.737-10.738-2.272-1.112 5.297 1.573.466c.432.145 1.084.397 1.88.697.729.31 1.256.647 1.859 1.043.45.28.613.463.555.54.105.26.084.605-.003.96l-6.21 29.179a3.71 3.71 0 0 1-.3.796c-.057.077-.25.172-.72.238-.134.019-.605.084-1.93-.074-1.037-.061-1.805-.16-2.371-.286l-1.603-.188-1.112 5.297 11.025 2.369-1.855 8.722 5.084 1.08 1.856-8.73 5.162 1.132-1.85 8.698 5.085 1.08 1.842-8.772c1.545.264 3.129.318 4.704.303 2.189-.031 4.265-.39 6.1-.988 2.039-.627 3.75-1.62 5.206-2.99 1.522-1.377 2.565-3.236 3.072-5.501.16-2.284.014-4.321-.787-6.128Zm-14.44-23.9c3.33.769 5.517 4.166 4.815 7.486-.693 3.387-4.032 5.499-7.42 4.806l-6.073-1.278 2.604-12.292 6.074 1.278ZM62.48 80.779l-7.417-1.57 3.1-14.624 7.418 1.57c4.03.877 6.639 4.832 5.76 8.863-.866 4.098-4.831 6.639-8.861 5.76Z"/></svg>