<svg xmlns="http://www.w3.org/2000/svg" width="961" height="949" fill="none"><circle cx="499.289" cy="487.289" r="390.965" fill="#fff"/><path fill="#2775CA" d="M468.391 28.462C357.474 35.975 253.774 83.031 174.689 161.82 94.912 241.399 48.647 342.924 40.245 456.905c-1.285 17.498-.692 59.907 1.087 76.12 9.194 84.818 38.159 160.246 87.389 227.369 26.395 35.984 61.785 71.275 98.164 98.065 65.048 47.946 140.277 77.306 222.229 86.796 31.733 3.658 77.899 2.966 112.499-1.582C747.66 919.058 901.876 780.264 946.361 597.38c8.205-33.512 11.962-62.181 12.95-97.967 4.053-139.98-56.743-274.424-164.991-365.174C704.262 58.811 586.425 20.554 468.391 28.462Zm-62.576 135.236c7.019 3.262 7.711 5.536 7.711 26.79 0 17.992 0 18.387-2.57 22.737-3.757 6.326-5.141 7.315-17.399 12.258-51.01 20.463-96.187 56.051-128.316 101.031-22.044 30.744-37.96 66.629-46.363 104.194-4.943 22.54-6.03 33.117-6.03 61.786 0 28.668 1.087 39.245 6.03 61.785 20.562 92.43 86.203 169.736 174.382 205.126 12.258 4.943 14.829 6.723 18.091 12.852 1.977 3.657 2.175 5.437 2.175 22.242 0 17.3-.099 18.486-2.274 21.946-1.582 2.472-3.658 4.152-6.623 5.339-5.338 1.977-7.909 1.483-27.186-5.734-32.227-12.06-62.378-29.064-91.936-51.801-14.631-11.269-46.462-43.101-57.732-57.732-39.345-51.01-62.477-105.875-71.275-169.044-2.274-15.52-3.065-58.325-1.483-75.328 6.129-67.717 30.151-128.415 72.758-183.675 11.27-14.631 43.002-46.364 57.732-57.732 31.041-24.022 67.123-43.695 100.833-55.063 13.049-4.35 13.84-4.449 19.475-1.977Zm207.302 2.175c25.9 8.798 53.382 22.44 78.195 39.048 20.068 13.345 33.413 24.318 51.998 42.903 45.375 45.178 75.526 97.868 91.245 159.258 8.007 31.238 11.072 59.61 10.182 94.605-.791 32.03-4.35 56.052-12.654 85.412-25.406 89.86-87.389 166.375-170.922 211.157-23.627 12.654-57.633 25.604-64.059 24.417-9.985-1.779-12.061-6.524-12.061-27.679 0-8.7.495-17.498 1.088-19.574 1.878-6.821 6.722-10.874 18.486-15.619 133.851-53.185 208.092-196.823 173.69-335.914-22.242-89.86-85.115-162.223-171.812-197.91-12.95-5.338-15.52-7.118-18.782-13.247-1.879-3.46-2.175-5.832-2.472-20.661-.494-21.451 1.285-26.79 9.293-29.261 4.745-1.384 6.228-1.186 18.585 3.065Zm-78.591 140.87c35.489 5.239 63.96 25.109 84.324 59.116 3.658 6.03 4.745 8.798 4.745 12.06 0 6.722-2.768 9.095-19.474 16.41-18.684 8.304-18.388 8.205-23.528 6.228-3.361-1.186-4.943-2.669-7.019-6.228-9.589-16.509-23.528-28.371-38.85-33.215-36.874-11.468-71.078 8.897-88.773 52.69-2.274 5.734-4.251 10.775-4.251 11.171 0 .494 20.265.791 44.979.791 48.835 0 48.737 0 52.295 5.437 1.879 2.768 2.373 9.193.989 11.665-.494.889-5.141 7.315-10.281 14.433-5.931 8.106-10.479 13.345-12.555 14.334-2.669 1.384-8.699 1.582-43.101 1.582h-39.938l-.692 3.064c-.791 4.053-.791 15.125 0 21.057l.692 4.547h47.846c51.9 0 52.196 0 56.447 5.437 1.483 1.878 2.175 4.152 2.175 7.217 0 4.053-.89 5.535-10.083 18.189-5.437 7.513-10.874 14.433-12.061 15.224-1.68 1.186-5.536 2.152-36.478 2.152-20.562 0-40.234-.57-40.234-.274 0 1.582 5.635 14.829 9.589 22.441 11.863 23.033 28.965 38.356 47.846 42.804 8.205 1.879 23.528 1.879 31.041 0 17.597-4.448 32.524-16.904 42.607-35.291 4.152-7.612 7.81-10.677 12.852-10.677 2.669 0 15.718 5.338 30.546 12.357 2.867 1.384 5.734 3.658 6.722 5.338 3.658 6.228 1.582 12.259-10.676 30.745-23.132 34.896-55.854 52.393-97.769 52.393-36.379 0-64.553-11.665-90.157-37.071-20.265-20.166-35.687-47.945-43.892-79.381l-1.087-4.152-28.878.494c-32.622 0-33.698-.692-36.763-7.019-2.768-5.931-1.582-8.995 9.49-23.923 5.536-7.414 10.973-14.235 12.16-15.026 1.581-1.186 1.471-1.779 15.113-1.977l22.056-.198v-11.961c0-6.624.297-13.049.594-14.335l.593-2.174h-25.802c-28.668 0-30.151-.297-33.71-6.228-2.175-3.559-2.57-7.711-.791-10.875 2.472-4.745 19.871-27.482 21.848-28.668 1.483-.791 9.193-1.384 23.33-1.68l21.155-.495 2.768-9.885c10.182-36.281 31.931-69.002 58.226-87.686 25.703-18.189 60.204-25.9 93.815-20.957Z"/></svg>