<?xml version="1.0" encoding="UTF-8"?>
<svg version="1.1" xmlns="http://www.w3.org/2000/svg" width="316" height="316">
<path d="M0 0 C1.22251465 0.29801514 1.22251465 0.29801514 2.46972656 0.60205078 C26.7406329 6.61349048 49.26144505 17.2204758 68 34 C68.72993164 34.64171143 68.72993164 34.64171143 69.47460938 35.29638672 C99.5608025 61.76956743 118.05615533 97.17780551 123 137 C123.12287338 139.60339042 123.2093087 142.18143571 123.23828125 144.78515625 C123.25304001 145.87967606 123.25304001 145.87967606 123.26809692 146.99630737 C123.59584252 177.63503812 118.94476835 204.86224668 104 232 C103.43539063 233.05445313 102.87078125 234.10890625 102.2890625 235.1953125 C83.01857509 269.84600113 49.52112605 295.22003633 12 307 C-0.02676056 310.30819805 -12.2733871 313.09905821 -24.78515625 313.23828125 C-25.51483612 313.24812042 -26.24451599 313.25795959 -26.99630737 313.26809692 C-57.63503812 313.59584252 -84.86224668 308.94476835 -112 294 C-113.05445312 293.43539063 -114.10890625 292.87078125 -115.1953125 292.2890625 C-151.30779785 272.20561764 -177.04861938 236.92020356 -188.3203125 197.55859375 C-189.34174426 193.73001349 -190.26362167 189.89385278 -191 186 C-191.17515137 185.0937085 -191.35030273 184.18741699 -191.53076172 183.25366211 C-193.1471538 174.00302571 -193.40039551 164.92387451 -193.375 155.5625 C-193.37412384 154.77108612 -193.37324768 153.97967224 -193.37234497 153.16427612 C-193.27438608 126.25947566 -187.00551286 101.61631785 -174 78 C-173.43539062 76.94554688 -172.87078125 75.89109375 -172.2890625 74.8046875 C-153.01857509 40.15399887 -119.52112605 14.77996367 -82 3 C-56.12095545 -4.11854237 -26.31787931 -6.75237429 0 0 Z " fill="#525ADA" transform="translate(193,3)"/>
<path d="M0 0 C3.91668954 2.06919448 6.80133721 4.14553956 9 8 C9.29128565 10.83800213 9.4092924 13.455161 9.38768005 16.29243469 C9.39575836 17.55809581 9.39575836 17.55809581 9.40399987 18.84932584 C9.41832614 21.68135511 9.41116419 24.51292004 9.40405273 27.3449707 C9.40975395 29.37358985 9.41671724 31.40220579 9.42485046 33.43081665 C9.44282676 38.94538281 9.4416048 44.45979023 9.43590808 49.97437692 C9.43282197 54.57675743 9.43890241 59.1791072 9.44494683 63.78148335 C9.45900581 74.64007405 9.45742 85.4985861 9.44604492 96.35717773 C9.43456852 107.56004257 9.44862832 118.76266787 9.4754414 129.96550113 C9.4975956 139.58176463 9.50423621 149.19795294 9.49836498 158.81424016 C9.4949928 164.55841662 9.49742764 170.30243961 9.51461601 176.04659462 C9.53007796 181.44995964 9.52613768 186.85296998 9.50731087 192.25632095 C9.5036226 194.23844141 9.50674034 196.22058809 9.51719666 198.2026844 C9.5303923 200.91107004 9.51887169 203.61827916 9.50120544 206.32661438 C9.51561295 207.50007627 9.51561295 207.50007627 9.53031152 208.69724447 C9.45637879 214.21554459 8.16557012 217.45487832 5 222 C0.68266618 224.9741633 -2.81076076 225.6486549 -8 225 C-13.08643801 222.26114877 -16.17004027 219.4898792 -18 214 C-18.09079107 211.52062384 -18.12607871 209.070146 -18.11352539 206.59106445 C-18.11364593 205.82746455 -18.11376646 205.06386465 -18.11389065 204.27712536 C-18.11314437 201.80581434 -18.10552909 199.33457877 -18.09765625 196.86328125 C-18.09618595 195.33736202 -18.09516578 193.81144229 -18.09460449 192.28552246 C-18.08936183 186.62784062 -18.07540063 180.97016957 -18.0625 175.3125 C-18.041875 162.669375 -18.02125 150.02625 -18 137 C-50.01 137 -82.02 137 -115 137 C-114.8417629 162.72892801 -114.8417629 162.72892801 -114.63964844 188.45751953 C-114.62158203 193.44506836 -114.62158203 193.44506836 -114.6182251 195.78341675 C-114.61210146 197.40903101 -114.59807168 199.03462762 -114.57769775 200.66012573 C-114.548308 203.12936739 -114.54437941 205.59750351 -114.54589844 208.06689453 C-114.531506 208.78540651 -114.51711357 209.5039185 -114.502285 210.24420357 C-114.54364311 215.28518178 -115.82646661 218.12601259 -119 222 C-123.365558 224.910372 -126.79500079 225.6506249 -132 225 C-136.97777021 222.51111489 -138.90895671 220.08399828 -141 215 C-141.38031673 211.68598938 -141.38031673 211.68598938 -141.38768005 208.0168457 C-141.39306559 207.33808286 -141.39845113 206.65932001 -141.40399987 205.95998859 C-141.41824297 203.69839867 -141.41118515 201.43739708 -141.40405273 199.17578125 C-141.40975818 197.5491794 -141.41672312 195.92258155 -141.42485046 194.29598999 C-141.44277633 189.88693427 -141.44161476 185.47807763 -141.43590808 181.06899643 C-141.43281586 177.38598989 -141.43890894 173.70302158 -141.44494683 170.02002048 C-141.45898813 161.33134844 -141.45743363 152.64277474 -141.44604492 143.95410156 C-141.4345596 134.9937636 -141.44864718 126.0337248 -141.4754414 117.07342625 C-141.49759761 109.37558924 -141.50423609 101.67784615 -141.49836498 93.97997952 C-141.49499455 89.38441743 -141.49741638 84.7890472 -141.51461601 80.19351196 C-141.53008221 75.87269613 -141.52613341 71.55232372 -141.50731087 67.23152542 C-141.50362429 65.64728505 -141.50673552 64.06301185 -141.51719666 62.47880173 C-141.53040437 60.31307547 -141.51886351 58.14881782 -141.50120544 55.9831543 C-141.50099616 54.77233688 -141.50078688 53.56151947 -141.50057125 52.31401062 C-140.76449495 47.44084884 -138.51707381 44.30034898 -134.8125 41.125 C-130.79880044 39.51952018 -127.26304489 39.32332621 -123 40 C-118.48836486 42.25581757 -116.20879521 44.51131354 -114 49 C-113.63923645 52.03096008 -113.63923645 52.03096008 -113.65942383 55.44262695 C-113.65978638 56.74139771 -113.66014893 58.04016846 -113.66052246 59.3782959 C-113.67562616 60.74829548 -113.69112572 62.11829075 -113.70703125 63.48828125 C-113.71005249 64.74137085 -113.71307373 65.99446045 -113.71618652 67.28552246 C-113.73186888 71.96126556 -113.77375281 76.63689115 -113.8125 81.3125 C-113.874375 91.769375 -113.93625 102.22625 -114 113 C-81.99 113 -49.98 113 -17 113 C-17.04640625 105.56210938 -17.0928125 98.12421875 -17.140625 90.4609375 C-17.16106332 85.74868396 -17.18031913 81.03648507 -17.1953125 76.32421875 C-17.21922315 68.84477386 -17.24750867 61.36552486 -17.30175781 53.88623047 C-17.34522137 47.85619586 -17.36913855 41.82637133 -17.37950897 35.79619217 C-17.38689934 33.49567991 -17.40133093 31.19517914 -17.42292023 28.89475632 C-17.45196013 25.67226064 -17.45595564 22.45063283 -17.45410156 19.22802734 C-17.46848267 18.27712219 -17.48286377 17.32621704 -17.49768066 16.34649658 C-17.46264285 10.71792251 -16.79304495 7.44973373 -13 3 C-9.05913462 -0.28405449 -4.98857772 -0.89011877 0 0 Z " fill="#FBFCFE" transform="translate(224,44)"/>
</svg>
