<?xml version="1.0" encoding="UTF-8"?>
<svg version="1.1" xmlns="http://www.w3.org/2000/svg" width="128" height="128">
<path d="M0 0 C12.27450445 9.58685901 18.87908208 24.56856557 20.98046875 39.6015625 C22.43193666 55.2136929 18.7056581 70.9168817 8.83984375 83.28515625 C6.63009038 85.81434675 4.35285486 88.2249849 1.98046875 90.6015625 C1.41585937 91.17777344 0.85125 91.75398438 0.26953125 92.34765625 C-11.74726714 103.63172303 -27.62373891 106.33792258 -43.4609375 105.8828125 C-60.02503571 105.0643271 -72.89153295 97.39078968 -84.01953125 85.6015625 C-94.83467445 72.8650477 -99.26899309 57.1313281 -98.01953125 40.6015625 C-95.99419573 23.61681808 -88.41045458 9.22267463 -75.01953125 -1.3984375 C-51.91059494 -18.28573711 -22.74480035 -15.74978438 0 0 Z M-48.01953125 10.6015625 C-47.68953125 11.5915625 -47.35953125 12.5815625 -47.01953125 13.6015625 C-45.36953125 13.6015625 -43.71953125 13.6015625 -42.01953125 13.6015625 C-42.01953125 15.9115625 -42.01953125 18.2215625 -42.01953125 20.6015625 C-43.15390625 20.6634375 -44.28828125 20.7253125 -45.45703125 20.7890625 C-54.38844388 21.95471424 -61.55644906 27.6800104 -67.01953125 34.6015625 C-71.46176754 42.40757308 -73.48736783 50.45610212 -71.37109375 59.31640625 C-68.35525966 68.50567851 -63.51203589 75.67257984 -55.109375 80.62890625 C-47.00542425 84.40065155 -38.26159271 85.32843152 -29.6875 82.50390625 C-19.34145537 77.62369652 -13.25591214 71.30813066 -9.30078125 60.66796875 C-6.91569575 52.86936683 -8.15033608 46.03051433 -11.64453125 38.7890625 C-12.11117187 37.91636719 -12.5778125 37.04367188 -13.05859375 36.14453125 C-14.18373092 33.16703411 -13.91591308 31.60930154 -13.01953125 28.6015625 C-11.03953125 28.9315625 -9.05953125 29.2615625 -7.01953125 29.6015625 C-6.02953125 28.1165625 -6.02953125 28.1165625 -5.01953125 26.6015625 C-6.4476394 25.09261804 -7.88734144 23.59463905 -9.33203125 22.1015625 C-10.53279297 20.84859375 -10.53279297 20.84859375 -11.7578125 19.5703125 C-13.89690607 17.27327967 -13.89690607 17.27327967 -17.01953125 17.6015625 C-16.81328125 18.7153125 -16.60703125 19.8290625 -16.39453125 20.9765625 C-16.27078125 22.1728125 -16.14703125 23.3690625 -16.01953125 24.6015625 C-16.67953125 25.2615625 -17.33953125 25.9215625 -18.01953125 26.6015625 C-22.05623246 26.37089386 -24.71460577 24.58484319 -28.10546875 22.5234375 C-31.33284313 20.96902862 -34.47079444 20.85059666 -38.01953125 20.6015625 C-38.01953125 18.2915625 -38.01953125 15.9815625 -38.01953125 13.6015625 C-36.36953125 13.2715625 -34.71953125 12.9415625 -33.01953125 12.6015625 C-33.01953125 11.6115625 -33.01953125 10.6215625 -33.01953125 9.6015625 C-35.48322657 8.36971484 -37.20898135 8.43423908 -39.95703125 8.4140625 C-41.26994141 8.39279297 -41.26994141 8.39279297 -42.609375 8.37109375 C-45.2819746 8.43492901 -45.2819746 8.43492901 -48.01953125 10.6015625 Z " fill="#336EE4" transform="translate(102.01953125,17.3984375)"/>
<path d="M0 0 C6.81453608 7.11143495 8.44048649 14.11077248 8.2421875 23.81640625 C7.62346092 31.94966699 4.04634614 37.57872344 -2 43 C-6.00219035 45.63521832 -10.20127055 47.53183127 -15 48 C-15.63292969 48.06316406 -16.26585938 48.12632813 -16.91796875 48.19140625 C-24.22429489 48.59228432 -31.12005691 46.76831429 -37.11328125 42.4921875 C-42.63780474 37.40536716 -45.54684462 31.89457121 -46.4140625 24.44140625 C-46.77450776 15.02240235 -45.56857379 7.93700716 -39.0625 0.90625 C-35.69904902 -2.20239409 -32.49629423 -4.81676468 -28 -6 C-27.154375 -6.226875 -26.30875 -6.45375 -25.4375 -6.6875 C-15.61226362 -7.58070331 -7.75920697 -6.39237158 0 0 Z M-20 1 C-21.58937556 2.58937556 -21.12981143 4.23899846 -21.1328125 6.4375 C-21.13410156 7.33210938 -21.13539062 8.22671875 -21.13671875 9.1484375 C-21.13285156 10.08945312 -21.12898438 11.03046875 -21.125 12 C-21.12886719 12.94101562 -21.13273437 13.88203125 -21.13671875 14.8515625 C-21.13542969 15.74617188 -21.13414063 16.64078125 -21.1328125 17.5625 C-21.13168457 18.38878906 -21.13055664 19.21507813 -21.12939453 20.06640625 C-21.21264807 22.00679039 -21.21264807 22.00679039 -20 23 C-17.64686445 23.07271741 -15.29166332 23.08370868 -12.9375 23.0625 C-11.64714844 23.05347656 -10.35679688 23.04445313 -9.02734375 23.03515625 C-8.02832031 23.02355469 -7.02929688 23.01195313 -6 23 C-5.67 21.68 -5.34 20.36 -5 19 C-7.52475462 17.73762269 -9.31200466 17.90143596 -12.125 17.9375 C-14.538125 17.9684375 -14.538125 17.9684375 -17 18 C-17 12.72 -17 7.44 -17 2 C-17.99 1.67 -18.98 1.34 -20 1 Z " fill="#3972E5" transform="translate(81,49)"/>
</svg>
