<svg xmlns="http://www.w3.org/2000/svg" width="279" height="271" fill="none"><circle cx="139" cy="136" r="130" fill="#111E3B"/><path fill="#F4F8FB" d="M165.571 207.697c-5.778 11.556-11.284 23.392-16.784 34.943a17.81 17.81 0 0 0-1.1 3.577 110.132 110.132 0 0 0 49.251-15.408c-6.051-8.529-11.281-16.233-16.784-24.213-5.503-7.153-10.731-6.607-14.583 1.101Z"/><path fill="url(#a)" d="m107.791 242.64-1.1-.276-1.1-.276-1.1-.275a119.116 119.116 0 0 1-37.42-20.913 111.34 111.34 0 0 1-15.682-16.507c-1.926-2.752-3.854-5.5-5.5-8.254 8.8-.826 16.784-1.653 25.04-2.2 19.808-1.377 39.344-2.477 59.154-3.854 5.228-.276 10.455-1.1 15.683-1.1 6.328 0 9.906 4.953 7.43 10.455-6.879 15.408-14.309 30.265-21.464 45.4 0 .548-.549.824-1.1 1.375a91.946 91.946 0 0 1-22.841-3.575Zm94.925-28.066c-3.851-5.5-8.253-11.281-11.83-17.058a7.236 7.236 0 0 1-.919-7.776 7.234 7.234 0 0 1 6.697-4.056c13.482-1.1 27.24-1.925 40.722-2.75.76.052 1.505.238 2.2.549A116.814 116.814 0 0 1 208.5 222.83l-5.784-8.256Zm-167.01-38.246A107.771 107.771 0 0 1 28 135.883a152.55 152.55 0 0 1 1.926-22.283c.55-1.65.826-3.578 1.377-5.229.275-1.375.826-2.476 1.1-3.851l.276-1.1c.275 0 .275-.273.275-.548a110.486 110.486 0 0 1 11.555-25.32A108.193 108.193 0 0 1 65.146 53.34c1.1-.826 2.2-1.65 3.852-2.752 1.926 2.2 3.575 4.4 5.226 6.6C81.1 67.1 87.982 77.277 95.135 86.908a11.179 11.179 0 0 1 1.1 13.207c-3.853 7.7-7.705 15.683-11.283 23.662-2.474 5.229-1.375 9.355 2.752 11.006 4.127 1.651 7.981-.276 10.457-5.226 1.926-3.578 3.3-7.154 5.227-10.733 3.577-6.6 9.355-7.152 13.757-1.1l31.367 44.574 1.1 1.375a8.45 8.45 0 0 1 .552 7.705 7.09 7.09 0 0 1-6.88 3.576c-15.958.826-31.914 2.2-47.874 3.3-14.033 1.1-28.342 2.2-42.373 3.025-4.937.469-9.897.653-14.856.551-.825-1.648-1.652-3.574-2.476-5.502Zm151.878-9.353a7.705 7.705 0 0 1 0-6.055l36.869-77.32a7.003 7.003 0 0 1 3.027-3.3 7.301 7.301 0 0 1 9.631 3.025 112.577 112.577 0 0 1 9.9 79.519 7.315 7.315 0 0 1-6.329 5.5c-14.856 1.1-29.991 1.925-44.848 2.752-.685.038-1.3.061-1.858.061-3.476.005-4.732-.863-6.392-4.182Zm-28.616-14.584c-12.382-18.433-25.587-36.593-38.52-54.753a10.873 10.873 0 0 1-1.375-12.38c9.079-18.987 18.159-38.246 27.24-57.232A29.167 29.167 0 0 0 148.238 25a119.936 119.936 0 0 1 36.594 9.629 112.237 112.237 0 0 1 34.945 24.763c-3.3 6.879-6.33 13.758-9.63 20.361-11.006 23.662-22.562 47.326-33.568 70.987-2.469 5.519-5.475 8.278-8.693 8.277-2.879 0-5.929-2.209-8.918-6.626Zm-59.98-85.569c-6.054-8.254-11.833-16.51-18.16-25.314 1.925-1.1 3.577-2.2 5.5-3.3a102.978 102.978 0 0 1 22.01-9.08A107.654 107.654 0 0 1 131.18 25h1.1c-3.576 8.254-6.879 15.133-9.9 21.461-3.021 6.328-6.055 12.656-9.355 19.26-1.76 3.517-4.376 5.317-7.1 5.317-2.401-.001-4.881-1.387-6.938-4.216Z"/><defs><linearGradient id="a" x1="61.557" x2="209.692" y1="198.433" y2="78.086" gradientUnits="userSpaceOnUse"><stop stop-color="#61A9FC"/><stop offset="1" stop-color="#315BCE"/></linearGradient></defs></svg>