<svg width="380" height="380" viewBox="0 0 380 380" fill="none" xmlns="http://www.w3.org/2000/svg">
<g clip-path="url(#clip0_436_2)">
<rect width="380" height="380" fill="white"/>
<circle cx="190" cy="190" r="190" fill="#111E3B"/>
<path d="M227.676 291.66C219.484 308.045 211.677 324.828 203.878 341.206C203.182 342.837 202.659 344.537 202.319 346.278C226.998 344.629 250.933 337.141 272.152 324.431C263.572 312.337 256.157 301.414 248.354 290.099C240.551 279.956 233.138 280.731 227.676 291.66Z" fill="#F4F8FB"/>
<path d="M145.75 341.206L141.071 340.033C121.736 333.439 103.759 323.392 88.0109 310.381C79.8194 303.359 72.369 295.516 65.7766 286.975C63.0457 283.073 60.312 279.177 57.9781 275.272C70.4557 274.101 81.7763 272.928 93.4812 272.152C121.569 270.2 149.269 268.64 177.358 266.688C184.771 266.296 192.182 265.128 199.595 265.128C208.567 265.128 213.641 272.151 210.13 279.952C200.376 301.799 189.841 322.865 179.696 344.325C179.696 345.102 178.917 345.494 178.136 346.275C167.17 345.955 156.289 344.252 145.75 341.206ZM280.345 301.411C274.884 293.612 268.643 285.415 263.571 277.224C262.318 275.705 261.53 273.858 261.299 271.903C261.067 269.948 261.404 267.968 262.268 266.199C263.132 264.43 264.486 262.947 266.17 261.927C267.854 260.907 269.796 260.394 271.764 260.447C290.88 258.888 310.387 257.718 329.504 256.548C330.581 256.622 331.637 256.886 332.623 257.327C322.143 278.895 307.104 297.93 288.546 313.117L280.345 301.411ZM43.5381 247.181C36.245 228.945 32.5357 209.474 32.6131 189.834C32.7491 179.25 33.6618 168.69 35.344 158.239C36.1239 155.899 36.5152 153.166 37.2965 150.825C37.6864 148.875 38.4677 147.314 38.8562 145.364L39.2475 143.804C39.6375 143.804 39.6375 143.417 39.6375 143.027C43.5636 130.418 49.0686 118.355 56.0214 107.126C64.0303 94.3031 73.8907 82.7346 85.2828 72.7955C86.8425 71.6243 88.4022 70.456 90.7446 68.8934C93.4755 72.0128 95.8136 75.1322 98.1546 78.2516C107.904 92.306 117.662 106.736 127.805 120.392C130.028 122.939 131.378 126.13 131.659 129.499C131.939 132.868 131.135 136.239 129.364 139.118C123.901 150.036 118.439 161.355 113.366 172.669C109.858 180.083 111.416 185.933 117.268 188.274C123.12 190.615 128.584 187.883 132.095 180.864C134.826 175.791 136.774 170.721 139.507 165.646C144.578 156.288 152.771 155.505 159.013 164.086C173.837 185.153 188.663 206.22 203.488 227.288L205.048 229.238C206.038 230.865 206.625 232.706 206.761 234.606C206.898 236.506 206.578 238.411 205.831 240.163C204.873 241.864 203.44 243.249 201.708 244.15C199.975 245.05 198.018 245.427 196.076 245.233C173.448 246.404 150.824 248.353 128.194 249.912C108.297 251.472 88.0081 253.032 68.1134 254.202C61.1127 254.867 54.0795 255.127 47.0489 254.983C45.8791 252.646 44.7065 249.915 43.5381 247.181ZM258.889 233.92C258.309 232.563 258.01 231.103 258.01 229.627C258.01 228.151 258.309 226.691 258.889 225.334L311.166 115.701C312.046 113.714 313.553 112.07 315.458 111.022C317.848 109.841 320.603 109.627 323.147 110.426C325.691 111.225 327.828 112.975 329.114 115.312C347.463 149.901 352.459 190.029 343.151 228.062C342.635 230.125 341.497 231.979 339.892 233.374C338.287 234.769 336.292 235.637 334.177 235.861C313.113 237.421 291.653 238.59 270.587 239.763C269.615 239.817 268.743 239.849 267.952 239.849C263.024 239.857 261.243 238.626 258.889 233.92ZM218.314 213.241C200.757 187.105 182.034 161.355 163.696 135.606C161.612 133.232 160.307 130.276 159.959 127.136C159.61 123.997 160.234 120.826 161.746 118.052C174.62 91.1305 187.494 63.823 200.37 36.9025C201.368 35.5298 202.279 34.0969 203.1 32.6119C221.009 34.3887 238.523 38.9971 254.987 46.265C273.604 54.6798 290.426 66.6007 304.536 81.3767C299.857 91.1305 295.56 100.884 290.881 110.247C275.276 143.797 258.89 177.351 243.285 210.9C239.784 218.725 235.522 222.637 230.959 222.636C226.877 222.636 222.552 219.504 218.314 213.241ZM133.266 91.9118C124.684 80.2084 116.49 68.5021 107.519 56.0188C110.248 54.4591 112.59 52.8994 115.317 51.3397C125.187 45.8559 135.66 41.5355 146.525 38.4651C157.079 35.3523 167.938 33.3899 178.913 32.6119H180.473C175.402 44.3154 170.719 54.0692 166.436 63.0417C162.152 72.0143 157.85 80.9868 153.171 90.3507C150.675 95.3375 146.966 97.8897 143.104 97.8897C139.699 97.8883 136.183 95.9231 133.266 91.9118Z" fill="url(#paint0_linear_436_2)"/>
</g>
<defs>
<linearGradient id="paint0_linear_436_2" x1="80.1943" y1="278.524" x2="290.236" y2="107.883" gradientUnits="userSpaceOnUse">
<stop stop-color="#61A9FC"/>
<stop offset="1" stop-color="#315BCE"/>
</linearGradient>
<clipPath id="clip0_436_2">
<rect width="380" height="380" fill="white"/>
</clipPath>
</defs>
</svg>
