<svg xmlns="http://www.w3.org/2000/svg" width="168" height="162" fill="none"><circle cx="84" cy="81" r="69" fill="#2775CA"/><path fill="#fff" d="M103.57 90.88c.12-8.22-8.35-14-19.28-15.14-6.42-.65-9.91-2.48-9.91-6.72 0-4.05 4.12-7.06 8.71-6.81 8.34.47 9.55 5.63 9.55 8.78 0 0 9.08.1 9.08 0 0-7.67-4.42-14.42-13.45-16.41V45.5h-9v8.76c-9.33 1.48-14.5 9-14.59 15.4-.13 8.47 6.95 13.18 18.7 14.88 7.3 1 10.55 3.79 10.48 7.49-.06 4-2.67 7.83-10.19 7.83-7.14 0-10.07-4.41-10.07-9.06h-9.8c0 8.34 4.46 14.46 15.42 15.88v8.74h9v-8.65c12.72-1.61 15.27-11.17 15.35-15.89Z"/><path fill="#fff" d="M40.41 81a43.59 43.59 0 0 1 29.71-41.32v-9.59a52.77 52.77 0 0 0 0 101.82v-9.59A43.591 43.591 0 0 1 40.41 81Zm56.96-51.06v9.56a43.61 43.61 0 0 1 0 83v9.56a52.79 52.79 0 0 0 0-102.12Z"/></svg>