<svg xmlns="http://www.w3.org/2000/svg" width="194" height="194" fill="none"><path fill="#000" d="M138.571 166.286c0 7.641-10.612 16.237-27.388 19.4H90.22c-37.582 0-68.049-8.686-68.049-19.4 0-10.715 30.467-19.4 68.05-19.4 37.582 0 48.35 8.685 48.35 19.4Z"/><path fill="#F61F7D" d="M188.457 88.985c0 47.325-41.914 93.929-89.527 93.929S2.771 133.015 2.771 85.69 41.37 0 88.983 0c47.613 0 99.474 41.66 99.474 88.985Z"/><path fill="#000" fill-rule="evenodd" d="M155.094 147.648c15.12-16.166 24.521-37.555 24.521-58.663 0-20.374-11.231-40.357-28.815-55.537-17.568-15.166-40.446-24.597-61.817-24.597-42.789 0-77.37 34.46-77.37 76.838 0 20.756 10.764 42.947 27.684 60.151 16.92 17.203 38.818 28.224 59.633 28.224 20.886 0 41.051-10.258 56.164-26.416ZM98.93 182.914c47.613 0 89.527-46.604 89.527-93.929S136.596 0 88.983 0C41.369 0 2.77 38.365 2.77 85.69c0 47.325 48.546 97.224 96.16 97.224Z" clip-rule="evenodd"/><path fill="#fff" d="M194 98.386c0 48.214-39.086 87.3-87.3 87.3-48.215 0-87.3-39.086-87.3-87.3 0-48.215 39.085-87.3 87.3-87.3 48.214 0 87.3 39.085 87.3 87.3Z"/><path fill="#000" fill-rule="evenodd" d="M106.7 176.808c43.311 0 78.422-35.111 78.422-78.422S150.011 19.964 106.7 19.964s-78.422 35.11-78.422 78.422c0 43.311 35.11 78.422 78.422 78.422Zm0 8.878c48.214 0 87.3-39.086 87.3-87.3 0-48.215-39.086-87.3-87.3-87.3-48.215 0-87.3 39.085-87.3 87.3 0 48.214 39.085 87.3 87.3 87.3Z" clip-rule="evenodd"/><path fill="#000" fill-rule="evenodd" d="M24.438 85.914 5.543 70.738l6.048-6.995 18.895 15.176-6.048 6.995Z" clip-rule="evenodd"/><path fill="#000" d="M47.114 80.372h8.009l2.53 24.224 3.213-24.173h6.27l3.372 24.019 2.582-24.07h7.903l-5.11 41.571h-8.22l-3.635-25.097-3.426 25.097h-8.324l-5.164-41.571Zm41.112 0h19.178v6.261h-9.747V96.95h7.429v6.364h-7.43v12.42h9.854v6.21H88.226V80.372Zm30.099 6.826h-6.533v-6.826h22.498v6.826h-6.481v34.745h-9.484V87.198Zm22.459-6.826h9.432v16.834h6.586V80.371h9.484v41.571h-9.484v-18.168h-6.586v18.168h-9.432v-41.57Z"/></svg>