<svg xmlns="http://www.w3.org/2000/svg" viewBox="0 0 575.44 196.01"><title>hypha-text-dark</title><g id="Livello_2" data-name="Livello 2"><g id="Livello_1-2" data-name="Livello 1"><g id="Group_4648" data-name="Group 4648"><g id="Group_4647" data-name="Group 4647"><path id="Union_81" data-name="Union 81" d="M236.21,186.67v-74.3A54.39,54.39,0,0,1,243,86.52a48.76,48.76,0,0,1,18-18.31,52.32,52.32,0,0,1,51.33,0A46.37,46.37,0,0,1,329.9,86.88a50.62,50.62,0,0,1,6.82,25.84,49.91,49.91,0,0,1-6.1,25.85,44.09,44.09,0,0,1-16.51,18,47.28,47.28,0,0,1-43.8,2.15,46.51,46.51,0,0,1-15.43-12.2V187a9.22,9.22,0,0,1-2.52,6.46A10.26,10.26,0,0,1,245.9,196,9.57,9.57,0,0,1,236.21,186.67Zm34.1-103.74a31.3,31.3,0,0,0-11.49,12.21,37.53,37.53,0,0,0-4.31,17.59A37.12,37.12,0,0,0,258.82,130a29,29,0,0,0,11.49,12.2,32.08,32.08,0,0,0,33,0A34,34,0,0,0,314.82,130a37.12,37.12,0,0,0,4.31-17.23,37.53,37.53,0,0,0-4.31-17.59,28.92,28.92,0,0,0-11.49-12.21A31.5,31.5,0,0,0,287,78.35a32.94,32.94,0,0,0-16.65,4.58ZM163,194.93a.37.37,0,0,0-.35-.36h0c-4.31-2.15-6.1-6.82-4-11.13l12.56-29.07c0-.36-.36-.36-.36-.72l-42-79.34a7.66,7.66,0,0,1-.36-6.82,7.53,7.53,0,0,1,4.67-4.66h.36c4-1.8,9,.36,10.77,4.66l34.46,68.21,28.72-67.85c.36-.36.36-1.07.72-1.43A8,8,0,0,1,219,63.55a3.24,3.24,0,0,1,2.51,1.07c3.59,2.16,4.31,6.82,2.15,10.41L174.47,190.26a9.44,9.44,0,0,1-8.3,5.3,8.11,8.11,0,0,1-3.19-.63Zm334.56-38.77A49.49,49.49,0,0,1,481,138.21a53.77,53.77,0,0,1-6.1-25.84,50.66,50.66,0,0,1,6.82-25.85A48.9,48.9,0,0,1,499.7,68.21a51.69,51.69,0,0,1,25.48-6.46,49.28,49.28,0,0,1,43.44,24.77,50.66,50.66,0,0,1,6.82,25.85v40.56a9.33,9.33,0,0,1-18.66,0v-6.82a51.51,51.51,0,0,1-11.49,10,45.71,45.71,0,0,1-47.75,0ZM509,82.93a32.23,32.23,0,0,0-11.85,12.21,37.4,37.4,0,0,0-4.3,17.59,37,37,0,0,0,4.3,17.23,28.9,28.9,0,0,0,11.49,12.2,32.05,32.05,0,0,0,33,0A29,29,0,0,0,553.18,130a42.54,42.54,0,0,0,4.67-17.23,37.53,37.53,0,0,0-4.31-17.59,28.92,28.92,0,0,0-11.49-12.21,31.5,31.5,0,0,0-16.37-4.58A32.94,32.94,0,0,0,509,82.93Zm-71.44,76.46a7.65,7.65,0,0,1-3.23-6.46V108.06a34.54,34.54,0,0,0-3.23-16.87,26,26,0,0,0-10.05-9.69,35,35,0,0,0-14.72-3.24,30.77,30.77,0,0,0-14,3.24,23.85,23.85,0,0,0-9.69,8.25,19.25,19.25,0,0,0-3.59,11.85v51.33a9,9,0,0,1-2.87,6.46,10.38,10.38,0,0,1-7.18,2.52,8.94,8.94,0,0,1-7.18-2.52,9.06,9.06,0,0,1-3.59-6.46V38.06a9.85,9.85,0,0,1,3.59-6.82,11.26,11.26,0,0,1,7.53-2.52h1.08a8.63,8.63,0,0,1,8.28,9c0,.12,0,.25,0,.38V73.59c2.87-2.87,5.74-5.38,9.33-6.81a44.5,44.5,0,0,1,21.54-5.39,48.86,48.86,0,0,1,22.62,5.39,40.65,40.65,0,0,1,15.43,15.79,54.36,54.36,0,0,1,5.75,25.84v44.52a9.22,9.22,0,0,1-2.52,6.46,10.26,10.26,0,0,1-6.46,2.51,6.33,6.33,0,0,1-1,.07,8.43,8.43,0,0,1-5.85-2.58ZM0,152.57V38.06a9.81,9.81,0,0,1,2.87-6.82,9.51,9.51,0,0,1,6.82-2.52h1.08A8.93,8.93,0,0,1,19,38.25s0,.11,0,.17V81.5H89.38V9.34a9.82,9.82,0,0,1,2.88-6.82A9.48,9.48,0,0,1,99.08,0c2.51,0,5,.72,6.46,2.51a9.44,9.44,0,0,1,2.51,6.82V152.21a9.5,9.5,0,0,1-2.51,6.82,9.81,9.81,0,0,1-6.82,2.87h-.36A9.25,9.25,0,0,1,89,152.7V98.37H18.67v53.84A8.19,8.19,0,0,1,16.15,159a9,9,0,0,1-6.46,2.87l-.62,0A9.16,9.16,0,0,1,0,152.67v-.1Z" style="fill:#111e3b"/></g></g></g></g></svg>