<?xml version="1.0" encoding="utf-8"?>
<!-- Generator: Adobe Illustrator 23.1.1, SVG Export Plug-In . SVG Version: 6.00 Build 0)  -->
<svg version="1.1" id="Livello_1" xmlns="http://www.w3.org/2000/svg" xmlns:xlink="http://www.w3.org/1999/xlink" x="0px" y="0px"
	 viewBox="0 0 822.8 196.4" style="enable-background:new 0 0 822.8 196.4;" xml:space="preserve">
<style type="text/css">
	.st0{fill:#111E3B;}
	.st1{fill:#F4F8FB;}
	.st2{fill:url(#Union_80_1_);}
</style>
<title>Group 4866</title>
<g>
	<g>
		<g id="Livello_1-2">
			<g id="Group_4866">
				<g id="Group_4648">
					<g id="Group_4647">
						<path id="Union_81" class="st0" d="M483.5,186.7v-74.3c0.1-9,2.4-17.9,6.8-25.8c4.2-7.6,10.4-13.9,17.9-18.3
							c15.9-9,35.4-9,51.3,0c7.5,4.4,13.6,10.9,17.6,18.7c4.5,7.9,6.9,16.8,6.8,25.8c0.3,9-1.8,17.9-6.1,25.9
							c-3.7,7.4-9.4,13.7-16.5,18c-13.4,7.9-29.7,8.7-43.8,2.1c-6-2.9-11.2-7.1-15.4-12.2V187c0,2.4-0.9,4.7-2.5,6.5
							c-1.8,1.6-4.1,2.4-6.5,2.5C488,196,483.7,191.9,483.5,186.7z M517.6,82.9c-4.9,2.9-8.8,7.2-11.5,12.2
							c-2.9,5.4-4.3,11.5-4.3,17.6c0,6,1.5,11.9,4.3,17.3c2.5,5.1,6.5,9.4,11.5,12.2c10.2,6.1,22.8,6.1,33,0
							c4.8-3,8.7-7.2,11.5-12.2c2.8-5.3,4.3-11.2,4.3-17.2c0-6.1-1.5-12.2-4.3-17.6c-2.5-5.1-6.5-9.4-11.5-12.2
							c-4.9-3-10.6-4.6-16.4-4.6C528.4,78.4,522.7,80,517.6,82.9L517.6,82.9z M410.3,194.9c0-0.2-0.2-0.3-0.4-0.4l0,0
							c-4.3-2.1-6.1-6.8-3.9-11.1l12.6-29.1c0-0.4-0.4-0.4-0.4-0.7l-42-79.3c-1.2-2.1-1.3-4.6-0.4-6.8c0.8-2.2,2.5-3.9,4.7-4.7h0.4
							c4-1.8,9,0.4,10.8,4.7l34.5,68.2l28.7-67.8c0.4-0.4,0.4-1.1,0.7-1.4c2.2-3.7,7-5,10.8-2.9c1,0,1.9,0.4,2.5,1.1
							c3.6,2.2,4.3,6.8,2.1,10.4l-49.2,115.2c-1.5,3.2-4.8,5.2-8.3,5.3C412.4,195.6,411.3,195.4,410.3,194.9L410.3,194.9z
							 M744.9,156.2c-6.9-4.5-12.6-10.7-16.5-17.9c-4.2-8-6.3-16.9-6.1-25.8c-0.1-9.1,2.3-18,6.8-25.8c4.2-7.6,10.4-13.9,17.9-18.3
							c7.8-4.3,16.6-6.5,25.5-6.5c17.9-0.2,34.5,9.2,43.4,24.8c4.5,7.9,6.9,16.8,6.8,25.8v40.6c0,5.2-4.2,9.3-9.3,9.3
							s-9.3-4.2-9.3-9.3v-6.8c-3.3,3.9-7.2,7.3-11.5,10C777.9,165.1,759.5,165.1,744.9,156.2L744.9,156.2z M756.3,82.9
							c-5,2.9-9.1,7.1-11.8,12.2c-2.9,5.4-4.3,11.5-4.3,17.6c0,6,1.5,11.9,4.3,17.3c2.6,5.1,6.6,9.3,11.5,12.2
							c10.2,6.1,22.8,6.1,33,0c4.9-2.8,8.9-7.1,11.5-12.2c2.8-5.3,4.3-11.2,4.7-17.2c0-6.1-1.5-12.2-4.3-17.6
							c-2.5-5.1-6.5-9.4-11.5-12.2c-4.9-3-10.6-4.6-16.4-4.6C767.1,78.4,761.4,80,756.3,82.9L756.3,82.9z M684.9,159.4
							c-2.1-1.5-3.3-3.9-3.2-6.5V108c0.4-5.8-0.8-11.6-3.2-16.9c-2.4-4.1-5.9-7.4-10-9.7c-4.6-2.1-9.6-3.2-14.7-3.2
							c-4.9,0-9.7,1.1-14,3.2c-3.9,1.8-7.3,4.7-9.7,8.2c-2.5,3.4-3.7,7.6-3.6,11.8v51.3c0,2.5-1.1,4.8-2.9,6.5
							c-2,1.7-4.5,2.6-7.2,2.5c-2.6,0.3-5.3-0.7-7.2-2.5c-2.1-1.5-3.4-3.9-3.6-6.5V38.1c0.2-2.7,1.5-5.1,3.6-6.8s4.8-2.6,7.5-2.5
							h1.1c4.8,0.2,8.5,4.2,8.3,9l0,0c0,0.1,0,0.2,0,0.4v35.5c2.9-2.9,5.7-5.4,9.3-6.8c6.6-3.6,14-5.4,21.5-5.4
							c7.9,0,15.6,1.8,22.6,5.4c6.5,3.7,11.8,9.2,15.4,15.8c4,8,6,16.9,5.7,25.8V153c0,2.4-0.9,4.7-2.5,6.5
							c-1.8,1.6-4.1,2.4-6.5,2.5c-0.3,0-0.7,0.1-1,0.1C688.6,161.9,686.5,161,684.9,159.4L684.9,159.4z M247.3,152.6V38.1
							c0-2.6,1.1-5,2.9-6.8c1.8-1.7,4.3-2.6,6.8-2.5h1.1c4.9,0.4,8.6,4.6,8.3,9.5c0,0,0,0.1,0,0.2v43.1h70.4V9.3
							c0-2.6,1.1-5,2.9-6.8c1.8-1.7,4.3-2.6,6.8-2.5c2.5,0,5,0.7,6.5,2.5c1.7,1.8,2.6,4.3,2.5,6.8v142.9c0.1,2.5-0.8,5-2.5,6.8
							c-1.8,1.8-4.3,2.9-6.9,2.9h-0.4c-5.1,0-9.3-4.1-9.3-9.2l0,0V98.4H266v53.8c0.3,2.5-0.7,5.1-2.5,6.8c-1.7,1.8-4,2.8-6.5,2.9
							h-0.6C251.3,161.9,247.3,157.7,247.3,152.6C247.3,152.7,247.3,152.7,247.3,152.6L247.3,152.6L247.3,152.6z"/>
					</g>
				</g>
			</g>
		</g>
	</g>
	<path class="st0" d="M97.5,195L97.5,195C43.7,195,0,151.4,0,97.5v0C0,43.6,43.7,0,97.5,0h0C151.4,0,195,43.6,195,97.5v0
		C195,151.4,151.4,195,97.5,195z"/>
	<g>
		<g id="Livello_1-2_1_">
			<g id="Group_4866_1_">
				<g id="Group_4839">
					<path id="Path_1355" class="st1" d="M117.8,152.3c-4.4,8.9-8.6,17.9-12.9,26.8c-0.4,0.9-0.7,1.8-0.9,2.7
						c13.3-0.9,26.3-4.9,37.8-11.8c-4.6-6.5-8.6-12.4-12.9-18.6C124.7,145.9,120.7,146.3,117.8,152.3z"/>
					
						<linearGradient id="Union_80_1_" gradientUnits="userSpaceOnUse" x1="1173.4628" y1="443.6317" x2="1174.0409" y2="443.1657" gradientTransform="matrix(197.31 0 0 196.4 -231497.5 -86984.3438)">
						<stop  offset="0" style="stop-color:#61A9FC"/>
						<stop  offset="1" style="stop-color:#315BCE"/>
					</linearGradient>
					<path id="Union_80" class="st2" d="M73.5,179l-0.9-0.2l-0.9-0.2l-0.9-0.2c-10.4-3.6-20.2-9-28.7-16c-4.4-3.8-8.5-8-12-12.6
						c-1.5-2.1-3-4.2-4.2-6.3c6.7-0.6,12.9-1.3,19.2-1.7c15.2-1.1,30.1-1.9,45.3-3c4-0.2,8-0.9,12-0.9c4.8,0,7.6,3.8,5.7,8
						c-5.3,11.8-11,23.2-16.4,34.8c0,0.4-0.4,0.6-0.9,1.1C85,181.6,79.2,180.7,73.5,179z M146.2,157.5c-3-4.2-6.3-8.6-9.1-13.1
						c-1.9-2.4-1.6-5.9,0.8-7.8c1-0.9,2.3-1.3,3.7-1.3c10.4-0.9,20.9-1.5,31.2-2.1c0.6,0,1.2,0.2,1.7,0.4
						c-5.7,11.7-13.8,21.9-23.8,30.1L146.2,157.5z M18.3,128.2c-3.9-9.8-5.9-20.4-5.9-31c0.1-5.7,0.6-11.4,1.5-17.1
						c0.4-1.3,0.6-2.7,1.1-4c0.2-1.1,0.6-1.9,0.9-2.9l0.2-0.9c0.2,0,0.2-0.2,0.2-0.4c2.1-6.8,5.1-13.3,8.8-19.4
						c4.3-6.9,9.7-13.2,15.8-18.6c0.9-0.6,1.7-1.3,3-2.1c1.5,1.7,2.7,3.4,4,5.1c5.3,7.6,10.5,15.4,16,22.8c2.5,2.8,2.8,6.9,0.9,10.1
						c-3,5.9-5.9,12-8.6,18.1c-1.9,4-1.1,7.1,2.1,8.4c3.2,1.3,6.1-0.2,8-4c1.5-2.7,2.5-5.5,4-8.2c2.7-5.1,7.2-5.5,10.5-0.9l24,34.2
						l0.9,1.1c1.1,1.8,1.2,4,0.4,5.9c-1.1,1.9-3.1,2.9-5.3,2.7c-12.2,0.6-24.4,1.7-36.7,2.5c-10.8,0.9-21.7,1.7-32.5,2.3
						c-3.8,0.4-7.6,0.5-11.4,0.4C19.5,131.2,18.9,129.7,18.3,128.2L18.3,128.2z M134.6,121c-0.6-1.5-0.6-3.2,0-4.6l28.2-59.2
						c0.5-1.1,1.3-2,2.3-2.5c2.7-1.3,5.9-0.3,7.4,2.3c9.9,18.7,12.6,40.4,7.6,60.9c-0.6,2.3-2.5,4-4.8,4.2
						c-11.4,0.9-23,1.5-34.4,2.1c-0.5,0-1,0.1-1.4,0.1C136.9,124.2,135.9,123.6,134.6,121L134.6,121z M112.7,109.8
						c-9.5-14.1-19.6-28-29.5-41.9c-2.3-2.6-2.7-6.4-1.1-9.5c7-14.5,13.9-29.2,20.8-43.8c0.6-0.7,1.1-1.5,1.5-2.3
						c9.7,1,19.1,3.5,28,7.4c10.1,4.6,19.1,11,26.8,19c-2.5,5.3-4.8,10.5-7.4,15.6c-8.4,18.1-17.3,36.2-25.7,54.4
						c-1.9,4.2-4.2,6.3-6.7,6.3C117.3,115,115,113.2,112.7,109.8L112.7,109.8z M66.7,44.3c-4.6-6.3-9-12.7-13.9-19.4
						c1.5-0.9,2.7-1.7,4.2-2.5c5.3-3,11-5.3,16.9-7c5.7-1.7,11.6-2.7,17.5-3.2h0.9c-2.7,6.3-5.3,11.6-7.6,16.4
						c-2.3,4.8-4.6,9.7-7.2,14.8c-1.3,2.7-3.4,4.1-5.4,4.1C70.2,47.6,68.3,46.5,66.7,44.3z"/>
				</g>
			</g>
		</g>
	</g>
</g>
</svg>
